<svg xmlns="http://www.w3.org/2000/svg" width="28.003" height="28.003" viewBox="0 0 28.003 28.003"><defs><style>.a{fill:#fbbb00;}.b{fill:#518ef8;}.c{fill:#28b446;}.d{fill:#f14336;}</style></defs><path class="a" d="M6.209,147.632l-.975,3.64-3.564.075a14.032,14.032,0,0,1-.1-13.08h0l3.173.582L6.13,142a8.36,8.36,0,0,0,.079,5.628Z" transform="translate(0 -130.709)"/><path class="b" d="M275.083,208.176a14,14,0,0,1-4.993,13.54h0l-4-.2-.566-3.531a8.349,8.349,0,0,0,3.592-4.263h-7.49v-5.541h13.455Z" transform="translate(-247.325 -196.797)"/><path class="c" d="M51.616,317.409h0a14.012,14.012,0,0,1-21.107-4.285l4.539-3.716a8.331,8.331,0,0,0,12,4.265Z" transform="translate(-28.84 -292.491)"/><path class="d" d="M50.006,3.225,45.468,6.94A8.33,8.33,0,0,0,33.188,11.3L28.625,7.566h0A14.01,14.01,0,0,1,50.006,3.225Z" transform="translate(-27.058)"/></svg>