<svg xmlns="http://www.w3.org/2000/svg" width="534" height="53" viewBox="0 0 534 53"><defs><style>.a,.h{fill:none;}.a{stroke:#fa5d29;}.b{fill:rgba(0,0,0,0.6);font-size:18px;font-family:OpenSans-SemiBold, Open Sans;font-weight:600;}.c{fill:#fbbb00;}.d{fill:#518ef8;}.e{fill:#28b446;}.f{fill:#f14336;}.g{stroke:none;}</style></defs><g transform="translate(-420 -858)"><g transform="translate(326 371.17)"><g transform="translate(94 486.83)"><g class="a"><rect class="g" width="534" height="53" rx="4"/><rect class="h" x="0.5" y="0.5" width="533" height="52" rx="3.5"/></g><text class="b" transform="translate(267 32)"><tspan x="-82.991" y="0">Sign In with Google</tspan></text></g></g><g transform="translate(440.999 870.499)"><path class="c" d="M6.209,147.632l-.975,3.64-3.564.075a14.032,14.032,0,0,1-.1-13.08h0l3.173.582L6.13,142a8.36,8.36,0,0,0,.079,5.628Z" transform="translate(0 -130.709)"/><path class="d" d="M275.083,208.176a14,14,0,0,1-4.993,13.54h0l-4-.2-.566-3.531a8.349,8.349,0,0,0,3.592-4.263h-7.49v-5.541h13.455Z" transform="translate(-247.325 -196.797)"/><path class="e" d="M51.616,317.409h0a14.012,14.012,0,0,1-21.107-4.285l4.539-3.716a8.331,8.331,0,0,0,12,4.265Z" transform="translate(-28.84 -292.491)"/><path class="f" d="M50.006,3.225,45.468,6.94A8.33,8.33,0,0,0,33.188,11.3L28.625,7.566h0A14.01,14.01,0,0,1,50.006,3.225Z" transform="translate(-27.058)"/></g></g></svg>