<svg xmlns="http://www.w3.org/2000/svg" width="155.167" height="76.036" viewBox="0 0 155.167 76.036"><defs><style>.a{fill:#f45e29;}</style></defs><path class="a" d="M314.639,396.044H302.932v4.475H313.69v7.187H302.932v5.56h12.114v7.187h-20.16v-31.64h19.753Zm17.491,14.464-6.057,9.944h-8.453v-1.221l10.215-15.549-9.13-13.651v-1.22h8.272l5.153,8.226h.226l5.288-8.226h8.137v1.22l-9.131,13.651,10.261,15.549v1.221h-8.5l-6.012-9.944ZM347.5,396.044v-7.232H371v7.232h-7.729v24.408h-8V396.044Zm54.33,23.233v1.175h-9.04l-5.424-9.311h-4.2v9.311h-8.091v-31.64h13.877c12.43.045,14.69,15.007,6.69,20.431Zm-12.882-23.233c-1.9-.045-3.888,0-5.786,0v7.91h5.786C393.329,403.953,393.555,396.089,388.945,396.044Zm-66.125,26.98h2.893v31.732h-8.272v-14.1l-6.735,7.052h-.9l-6.69-7.052v14.1h-8.272V423.024h2.983l12.385,13.742Zm24.5-.316L361.6,453.58v1.175h-7.91l-1.854-3.978H339.361l-1.853,3.978H329.6V453.58l14.239-30.872h3.48m-1.763,12.837-3.571,8.317h7.232Zm46.013,18.035v1.175h-9.041l-5.424-9.311h-4.2v9.311h-8.091V423.114h13.876c12.431.045,14.69,15.006,6.69,20.431Zm-12.883-23.233c-1.9-.045-3.887,0-5.785,0v7.91h5.785C383.069,438.257,383.295,430.391,378.684,430.346Zm16.9,24.409V423.114h8.226v11.978h.587c8.091,0,7.684-6.057,7.684-11.978H420.4c0,6.464.181,12.43-6.1,16.453l8.588,13.923v1.266h-9l-6.961-12.25a18.344,18.344,0,0,1-3.119.181v12.069Zm46.555-9.311c0-2.215-2.622-2.712-5.786-2.893-6.871-.5-11.391-2.848-11.481-9.718-.271-13.651,24.318-13.651,24.137,0h-7.684c0-4.2-8.5-3.842-8.769-.091-.181,2.4,2.17,2.893,5.017,3.21,6.283.678,12.43,1.627,12.43,9.537,0,13.289-25.765,13.515-25.584-.407h7.82C432.244,449.1,442.143,449.15,442.143,445.444Zm-9.582-24.982a2.58,2.58,0,0,0,1.63-2.025l5.432-36.018a2.58,2.58,0,0,0-3.87-2.6l-30.707,18.247a2.581,2.581,0,0,0-.327,4.206l6.965,5.765a2.58,2.58,0,0,0,3.291-3.976l-4.144-3.43,22.877-13.594-3.94,26.123-4.052-3.349a2.58,2.58,0,0,0-2.707-.362l-2.525,1.142L425.3,404.8a2.58,2.58,0,1,0-3.968-3.3l-11.98,14.411a2.58,2.58,0,0,0,3.048,4l11.271-5.1L430,420.04a2.581,2.581,0,0,0,2.566.421Z" transform="translate(-294.841 -379.453)"/></svg>