<svg xmlns="http://www.w3.org/2000/svg" width="25.064" height="17.089" viewBox="0 0 25.064 17.089"><defs><style>.a{fill:rgba(0,0,0,0.6);}</style></defs><path class="a" d="M12.532,17.089a13.365,13.365,0,0,1-7.663-2.4A13.486,13.486,0,0,1,0,8.545a13.464,13.464,0,0,1,25.064,0A13.485,13.485,0,0,1,20.2,14.692,13.367,13.367,0,0,1,12.532,17.089Zm0-14.241a5.7,5.7,0,1,0,5.7,5.7A5.7,5.7,0,0,0,12.532,2.849Zm0,9.114A3.418,3.418,0,1,1,15.95,8.545,3.422,3.422,0,0,1,12.532,11.963Z" transform="translate(0 0)"/></svg>